<svg width="82" height="82" viewBox="0 0 82 82" fill="none" xmlns="http://www.w3.org/2000/svg">
<rect width="82" height="82" rx="41" fill="#FFF1C5"/>
<path d="M39.155 16.3954L23.2106 23.5244C21.5706 24.2579 20.5 25.9083 20.5 27.7192V38.4928C20.5 51.2149 29.2467 63.1117 41 66C52.7533 63.1117 61.5 51.2149 61.5 38.4928V27.7192C61.5 25.9083 60.4294 24.2579 58.7894 23.5244L42.845 16.3954C41.6833 15.8682 40.3167 15.8682 39.155 16.3954ZM34.8272 50.6189L28.9278 44.6819C28.0394 43.788 28.0394 42.3438 28.9278 41.4499C29.8161 40.5559 31.2511 40.5559 32.1394 41.4499L36.4444 45.7593L49.8378 32.2808C50.7261 31.3868 52.1611 31.3868 53.0494 32.2808C53.9378 33.1748 53.9378 34.6189 53.0494 35.5129L38.0389 50.6189C37.1733 51.5129 35.7156 51.5129 34.8272 50.6189Z" fill="#FF9D00"/>
</svg>
