<svg width="82" height="82" viewBox="0 0 82 82" fill="none" xmlns="http://www.w3.org/2000/svg">
<rect width="82" height="82" rx="41" fill="#FFF1C5"/>
<path d="M31.375 23.5C24.7447 23.5 18.9595 27.0602 15.874 32.3236C17.656 33.064 19.1501 34.3191 20.1924 35.8941C22.1669 31.7668 26.4195 28.8846 31.375 28.8846H38.25V23.5H31.375ZM43.75 23.5V28.8846H50.625C55.5805 28.8846 59.8331 31.7668 61.8076 35.8941C62.8499 34.3218 64.3467 33.064 66.126 32.3236C63.0432 27.0602 57.2552 23.5 50.625 23.5H43.75ZM27.5723 33.9011C25.177 33.9011 23.2378 35.7997 23.2378 38.1447V41.9675C23.2378 44.3125 25.177 46.2163 27.5723 46.2163C29.9675 46.2163 31.9121 44.3125 31.9121 41.9675V41.9097H29.2964V41.915C29.2964 42.93 28.4586 43.7554 27.4219 43.7554C26.3851 43.7554 25.542 42.93 25.542 41.915V40.5898H31.9121V38.1447C31.9121 35.7997 29.9675 33.9011 27.5723 33.9011ZM37.4873 33.9011C36.8548 33.9011 36.2697 34.0659 35.7417 34.3271C34.4767 34.9544 33.5986 36.2248 33.5986 37.7082V38.2604H35.7417C35.7417 37.3746 36.4725 36.6618 37.3745 36.6618C37.8008 36.6618 38.1841 36.8318 38.4756 37.093C38.8661 37.7768 38.6852 39.3618 36.73 39.7064C34.3705 40.1237 33.3132 40.0869 33.1152 42.588C32.92 45.0892 34.7195 46.2163 35.8223 46.2163C36.8398 46.2163 37.6382 46.2558 38.1909 46.1427C39.5604 45.8654 39.6787 45.2646 39.6787 45.2646V46.2163H40.3662H41.8057V45.1436H41.3706V37.7082H41.376C41.376 36.1386 40.4014 34.7929 39.0127 34.2114C38.5424 34.0148 38.0318 33.9011 37.4873 33.9011ZM46.0005 33.9011C44.0425 33.9011 42.4502 35.4626 42.4502 37.3822V37.7082C42.4502 38.6909 42.8445 39.6087 43.5513 40.3006C44.2608 40.9952 45.2205 41.3601 46.3013 41.3628H46.3066C46.6394 41.3628 46.951 41.4889 47.1875 41.7204C47.4185 41.9466 47.5472 42.2493 47.5527 42.567C47.5417 43.232 46.992 43.7712 46.167 43.7712C45.4795 43.7712 44.9209 43.219 44.9209 42.546H42.4233C42.4233 44.5652 44.1011 46.2111 46.3066 46.2111C48.3554 46.2138 50.0257 44.5938 50.0449 42.588V42.567V42.5512C50.0339 41.582 49.6532 40.6795 48.9492 39.9956C48.2425 39.3037 47.2387 38.9632 46.1992 38.9282C45.8115 38.8313 45.5467 38.8047 45.313 38.5759C45.0737 38.3443 44.9424 38.0367 44.9424 37.7082V37.3822C44.9424 36.8087 45.4175 36.341 46.0005 36.341C46.5835 36.341 47.064 36.8087 47.064 37.3822V37.9238H49.5561V37.3822C49.5561 35.4626 47.9612 33.9011 46.0005 33.9011ZM50.0449 33.9748L53.2461 44.744L53.2353 46.0744C53.2436 46.7744 52.6667 47.3469 51.9517 47.3469H50.9634V49.913H53.042C55.1732 49.8726 55.2001 47.7685 55.3623 46.8316C55.7418 44.6239 58.1445 33.9748 58.1445 33.9748H55.9907L54.3955 41.3628L52.6338 33.9748H50.0449ZM27.4004 35.9151C28.4454 35.9151 29.291 36.743 29.291 37.7661V38.6916H29.2856H25.5044V37.7661C25.5044 36.743 26.3554 35.9151 27.4004 35.9151ZM12.125 36.9615C11.031 36.9615 9.98177 37.387 9.20818 38.1444C8.4346 38.9017 8 39.9289 8 41C8 42.0711 8.4346 43.0983 9.20818 43.8556C9.98177 44.613 11.031 45.0385 12.125 45.0385C13.219 45.0385 14.2682 44.613 15.0418 43.8556C15.8154 43.0983 16.25 42.0711 16.25 41C16.25 39.9289 15.8154 38.9017 15.0418 38.1444C14.2682 37.387 13.219 36.9615 12.125 36.9615ZM69.875 36.9615C68.781 36.9615 67.7318 37.387 66.9582 38.1444C66.1846 38.9017 65.75 39.9289 65.75 41C65.75 42.0711 66.1846 43.0983 66.9582 43.8556C67.7318 44.613 68.781 45.0385 69.875 45.0385C70.969 45.0385 72.0182 44.613 72.7918 43.8556C73.5654 43.0983 74 42.0711 74 41C74 39.9289 73.5654 38.9017 72.7918 38.1444C72.0182 37.387 70.969 36.9615 69.875 36.9615ZM38.9966 40.6372C38.9966 40.6372 39.2159 43.3022 38.5669 44.0183C37.9646 44.6833 36.4174 44.7561 35.7739 44.1288C35.1332 43.5014 35.0211 42.2718 35.7471 41.7414C36.5996 41.1195 38.9966 40.6372 38.9966 40.6372ZM20.1924 46.1059C19.1501 47.6782 17.6533 48.936 15.874 49.6764C18.9568 54.9398 24.7447 58.5 31.375 58.5H38.25V53.1154H31.375C26.4195 53.1154 22.1669 50.2332 20.1924 46.1059ZM61.8076 46.1059C59.8331 50.2332 55.5805 53.1154 50.625 53.1154H43.75V58.5H50.625C57.2552 58.5 63.0405 54.9398 66.126 49.6764C64.344 48.936 62.8499 47.6809 61.8076 46.1059Z" fill="#FF9D00"/>
</svg>
