<svg width="82" height="82" viewBox="0 0 82 82" fill="none" xmlns="http://www.w3.org/2000/svg">
<rect width="82" height="82" rx="41" fill="#FFF1C5"/>
<path d="M63.9167 41L58.8333 35.1875L59.5417 27.5L52.0208 25.7917L48.0833 19.125L41 22.1667L33.9167 19.125L29.9792 25.7708L22.4583 27.4583L23.1667 35.1667L18.0833 41L23.1667 46.8125L22.4583 54.5208L29.9792 56.2292L33.9167 62.875L41 59.8125L48.0833 62.8542L52.0208 56.2083L59.5417 54.5L58.8333 46.8125L63.9167 41ZM35.5417 49.3542L30.5833 44.3542C29.7708 43.5417 29.7708 42.2292 30.5833 41.4167L30.7292 41.2708C31.5417 40.4583 32.875 40.4583 33.6875 41.2708L37.0417 44.6458L47.7708 33.8958C48.5833 33.0833 49.9167 33.0833 50.7292 33.8958L50.875 34.0417C51.6875 34.8542 51.6875 36.1667 50.875 36.9792L38.5417 49.3542C37.6875 50.1667 36.375 50.1667 35.5417 49.3542Z" fill="#FF9D00"/>
</svg>
