<svg width="41" height="40" viewBox="0 0 41 40" fill="none" xmlns="http://www.w3.org/2000/svg">
<path opacity="0.5" d="M3.83318 20.0002C3.83318 29.2048 11.2952 36.6668 20.4998 36.6668C29.7046 36.6668 37.1665 29.2048 37.1665 20.0002C37.1665 10.7954 29.7046 3.3335 20.4998 3.3335C11.2952 3.3335 3.83318 10.7954 3.83318 20.0002Z" fill="#1C274C"/>
<path d="M12.4882 31.6853C14.7668 33.2507 17.5263 34.1667 20.4998 34.1667C23.4733 34.1667 26.2328 33.2505 28.5115 31.6852C29.5179 30.9938 29.948 29.677 29.3629 28.6053C28.1498 26.3837 25.6503 25 20.4998 25C15.3493 25 12.8498 26.3838 11.6368 28.6053C11.0517 29.677 11.4818 30.994 12.4882 31.6853Z" fill="#1C274C"/>
<path d="M20.5001 20C17.7386 20 15.5001 17.7615 15.5001 15C15.5001 12.2386 17.7386 10 20.5001 10C23.2614 10 25.5 12.2386 25.5 15C25.5 17.7615 23.2614 20 20.5001 20Z" fill="#1C274C"/>
</svg>
